<svg width="26" height="23" viewBox="0 0 26 23" fill="none" xmlns="http://www.w3.org/2000/svg">
<path d="M12.867 22.9997L18.6774 8.33306H20.0414L25.8517 22.9997H24.4107L22.8234 18.9331H15.8954L14.308 22.9997H12.867ZM2.35935 19.1537L1.41569 18.2101L7.94402 11.6561C7.18335 10.8783 6.42647 9.92106 5.67335 8.78439C4.92047 7.6475 4.3628 6.60817 4.00035 5.66639H5.44135C5.76624 6.4135 6.25769 7.27161 6.91569 8.24072C7.57391 9.21006 8.23124 10.0339 8.88769 10.7124C10.0484 9.53461 11.0787 8.24195 11.9787 6.83439C12.8787 5.42661 13.4774 4.14839 13.7747 2.99972H0.179688V1.66639H8.33369V0.0253906H9.66702V1.66639H17.821V2.99972H15.1594C14.7611 4.39461 14.0825 5.88095 13.1234 7.45872C12.1645 9.0365 11.067 10.4407 9.83102 11.6714L13.2107 15.1434L12.6977 16.5177L8.88769 12.6074L2.35935 19.1537ZM16.344 17.7281H22.3747L19.3594 9.97906L16.344 17.7281Z" fill="white"/>
</svg>
